<mxfile host="app.diagrams.net" modified="2022-05-02T00:21:28.094Z" agent="5.0 (Windows NT 10.0; Win64; x64) AppleWebKit/537.36 (KHTML, like Gecko) Chrome/100.0.4896.127 Safari/537.36" etag="r_2Otm5hA5Lmkgfg0Qzj" version="17.5.0" type="github">
  <diagram id="ynY3r5JYlk6WKdW9Yk7H" name="Page-1">
    <mxGraphModel dx="1778" dy="1946" grid="1" gridSize="10" guides="1" tooltips="1" connect="1" arrows="1" fold="1" page="1" pageScale="1" pageWidth="1169" pageHeight="827" math="0" shadow="0">
      <root>
        <mxCell id="0" />
        <mxCell id="1" parent="0" />
        <mxCell id="cpP7aHBiMPf3QizdeRdw-4" value="" style="edgeStyle=orthogonalEdgeStyle;orthogonalLoop=1;jettySize=auto;html=1;curved=1;sketch=1;fontSize=12;fontStyle=1;fontFamily=Helvetica;" edge="1" parent="1" source="cpP7aHBiMPf3QizdeRdw-1" target="cpP7aHBiMPf3QizdeRdw-3">
          <mxGeometry relative="1" as="geometry" />
        </mxCell>
        <mxCell id="cpP7aHBiMPf3QizdeRdw-6" value="" style="edgeStyle=orthogonalEdgeStyle;orthogonalLoop=1;jettySize=auto;html=1;curved=1;sketch=1;fontSize=12;fontStyle=1;fontFamily=Helvetica;startArrow=none;entryX=0.033;entryY=0.498;entryDx=0;entryDy=0;entryPerimeter=0;" edge="1" parent="1" source="cpP7aHBiMPf3QizdeRdw-33" target="cpP7aHBiMPf3QizdeRdw-73">
          <mxGeometry relative="1" as="geometry">
            <mxPoint x="820" y="390" as="targetPoint" />
          </mxGeometry>
        </mxCell>
        <mxCell id="cpP7aHBiMPf3QizdeRdw-8" value="" style="edgeStyle=orthogonalEdgeStyle;orthogonalLoop=1;jettySize=auto;html=1;exitX=1;exitY=1;exitDx=0;exitDy=0;curved=1;sketch=1;fontSize=12;fontStyle=1;fontFamily=Helvetica;entryX=0.5;entryY=0;entryDx=0;entryDy=0;" edge="1" parent="1" source="cpP7aHBiMPf3QizdeRdw-1" target="cpP7aHBiMPf3QizdeRdw-51">
          <mxGeometry relative="1" as="geometry">
            <mxPoint x="780" y="500" as="targetPoint" />
          </mxGeometry>
        </mxCell>
        <mxCell id="cpP7aHBiMPf3QizdeRdw-11" value="" style="edgeStyle=orthogonalEdgeStyle;orthogonalLoop=1;jettySize=auto;html=1;curved=1;sketch=1;fontSize=12;fontStyle=1;fontFamily=Helvetica;" edge="1" parent="1" source="cpP7aHBiMPf3QizdeRdw-1" target="cpP7aHBiMPf3QizdeRdw-10">
          <mxGeometry relative="1" as="geometry" />
        </mxCell>
        <mxCell id="cpP7aHBiMPf3QizdeRdw-15" style="edgeStyle=orthogonalEdgeStyle;orthogonalLoop=1;jettySize=auto;html=1;exitX=0;exitY=1;exitDx=0;exitDy=0;curved=1;sketch=1;fontSize=12;fontStyle=1;fontFamily=Helvetica;entryX=0.5;entryY=0;entryDx=0;entryDy=0;" edge="1" parent="1" source="cpP7aHBiMPf3QizdeRdw-1" target="cpP7aHBiMPf3QizdeRdw-50">
          <mxGeometry relative="1" as="geometry">
            <mxPoint x="385" y="479.9999999999999" as="targetPoint" />
            <Array as="points">
              <mxPoint x="525" y="460" />
              <mxPoint x="385" y="460" />
            </Array>
          </mxGeometry>
        </mxCell>
        <mxCell id="cpP7aHBiMPf3QizdeRdw-20" value="" style="edgeStyle=orthogonalEdgeStyle;curved=1;rounded=1;sketch=1;orthogonalLoop=1;jettySize=auto;html=1;fontSize=12;fontFamily=Helvetica;exitX=0;exitY=0;exitDx=0;exitDy=0;" edge="1" parent="1" source="cpP7aHBiMPf3QizdeRdw-1" target="cpP7aHBiMPf3QizdeRdw-19">
          <mxGeometry relative="1" as="geometry" />
        </mxCell>
        <mxCell id="cpP7aHBiMPf3QizdeRdw-31" value="" style="edgeStyle=orthogonalEdgeStyle;curved=1;rounded=1;sketch=1;orthogonalLoop=1;jettySize=auto;html=1;fontSize=12;fontFamily=Helvetica;" edge="1" parent="1" source="cpP7aHBiMPf3QizdeRdw-1" target="cpP7aHBiMPf3QizdeRdw-30">
          <mxGeometry relative="1" as="geometry" />
        </mxCell>
        <mxCell id="cpP7aHBiMPf3QizdeRdw-34" value="" style="edgeStyle=orthogonalEdgeStyle;curved=1;rounded=1;sketch=1;orthogonalLoop=1;jettySize=auto;html=1;fontFamily=Helvetica;fontSize=12;" edge="1" parent="1" source="cpP7aHBiMPf3QizdeRdw-1" target="cpP7aHBiMPf3QizdeRdw-33">
          <mxGeometry relative="1" as="geometry" />
        </mxCell>
        <mxCell id="cpP7aHBiMPf3QizdeRdw-37" value="" style="edgeStyle=orthogonalEdgeStyle;curved=1;rounded=1;sketch=1;orthogonalLoop=1;jettySize=auto;html=1;fontFamily=Helvetica;fontSize=12;" edge="1" parent="1" source="cpP7aHBiMPf3QizdeRdw-1" target="cpP7aHBiMPf3QizdeRdw-36">
          <mxGeometry relative="1" as="geometry" />
        </mxCell>
        <mxCell id="cpP7aHBiMPf3QizdeRdw-58" style="edgeStyle=orthogonalEdgeStyle;curved=1;rounded=1;sketch=1;orthogonalLoop=1;jettySize=auto;html=1;entryX=0.5;entryY=1;entryDx=0;entryDy=0;fontFamily=Helvetica;fontSize=12;exitX=1;exitY=0;exitDx=0;exitDy=0;" edge="1" parent="1" source="cpP7aHBiMPf3QizdeRdw-1" target="cpP7aHBiMPf3QizdeRdw-57">
          <mxGeometry relative="1" as="geometry" />
        </mxCell>
        <mxCell id="cpP7aHBiMPf3QizdeRdw-1" value="Tooth Discolorations" style="rounded=1;whiteSpace=wrap;html=1;sketch=1;fontSize=12;fontStyle=1;fontFamily=Helvetica;" vertex="1" parent="1">
          <mxGeometry x="525" y="360" width="120" height="60" as="geometry" />
        </mxCell>
        <mxCell id="cpP7aHBiMPf3QizdeRdw-3" value="&lt;span&gt;Intrinsic/&lt;/span&gt;&lt;br&gt;&lt;span&gt;Extrinsic&lt;/span&gt;" style="rhombus;whiteSpace=wrap;html=1;rounded=1;sketch=1;fontSize=12;fontStyle=1;fontFamily=Helvetica;" vertex="1" parent="1">
          <mxGeometry x="545" y="550" width="80" height="80" as="geometry" />
        </mxCell>
        <mxCell id="cpP7aHBiMPf3QizdeRdw-39" value="" style="edgeStyle=orthogonalEdgeStyle;curved=1;rounded=1;sketch=1;orthogonalLoop=1;jettySize=auto;html=1;fontFamily=Helvetica;fontSize=12;exitX=0.5;exitY=1;exitDx=0;exitDy=0;" edge="1" parent="1" source="cpP7aHBiMPf3QizdeRdw-51" target="cpP7aHBiMPf3QizdeRdw-38">
          <mxGeometry relative="1" as="geometry">
            <mxPoint x="780" y="539.9999999999999" as="sourcePoint" />
          </mxGeometry>
        </mxCell>
        <mxCell id="cpP7aHBiMPf3QizdeRdw-10" value="&lt;span&gt;Intrinsic/&lt;/span&gt;&lt;br&gt;&lt;span&gt;Extrinsic&lt;/span&gt;" style="rhombus;whiteSpace=wrap;html=1;rounded=1;sketch=1;fontSize=12;fontStyle=1;fontFamily=Helvetica;" vertex="1" parent="1">
          <mxGeometry x="240" y="350" width="80" height="80" as="geometry" />
        </mxCell>
        <mxCell id="cpP7aHBiMPf3QizdeRdw-49" value="" style="edgeStyle=orthogonalEdgeStyle;curved=1;rounded=1;sketch=1;orthogonalLoop=1;jettySize=auto;html=1;fontFamily=Helvetica;fontSize=12;exitX=0.518;exitY=1.087;exitDx=0;exitDy=0;exitPerimeter=0;" edge="1" parent="1" source="cpP7aHBiMPf3QizdeRdw-50" target="cpP7aHBiMPf3QizdeRdw-48">
          <mxGeometry relative="1" as="geometry">
            <mxPoint x="385" y="560" as="sourcePoint" />
          </mxGeometry>
        </mxCell>
        <mxCell id="cpP7aHBiMPf3QizdeRdw-56" value="" style="edgeStyle=orthogonalEdgeStyle;curved=1;rounded=1;sketch=1;orthogonalLoop=1;jettySize=auto;html=1;fontFamily=Helvetica;fontSize=12;" edge="1" parent="1" source="cpP7aHBiMPf3QizdeRdw-19" target="cpP7aHBiMPf3QizdeRdw-55">
          <mxGeometry relative="1" as="geometry" />
        </mxCell>
        <mxCell id="cpP7aHBiMPf3QizdeRdw-19" value="Brown/&lt;br&gt;Reddish" style="whiteSpace=wrap;html=1;rounded=1;sketch=1;fontStyle=1;fontFamily=Helvetica;" vertex="1" parent="1">
          <mxGeometry x="346" y="240" width="80" height="40" as="geometry" />
        </mxCell>
        <mxCell id="cpP7aHBiMPf3QizdeRdw-30" value="White" style="rounded=1;whiteSpace=wrap;html=1;sketch=1;fontSize=12;fontStyle=1;fontFamily=Helvetica;" vertex="1" parent="1">
          <mxGeometry x="545" y="460" width="80" height="40" as="geometry" />
        </mxCell>
        <mxCell id="cpP7aHBiMPf3QizdeRdw-33" value="Gray" style="rounded=1;whiteSpace=wrap;html=1;sketch=1;fontSize=12;fontStyle=1;fontFamily=Helvetica;" vertex="1" parent="1">
          <mxGeometry x="690" y="370" width="80" height="40" as="geometry" />
        </mxCell>
        <mxCell id="cpP7aHBiMPf3QizdeRdw-35" value="" style="edgeStyle=orthogonalEdgeStyle;orthogonalLoop=1;jettySize=auto;html=1;curved=1;sketch=1;fontSize=12;fontStyle=1;fontFamily=Helvetica;endArrow=none;" edge="1" parent="1" source="cpP7aHBiMPf3QizdeRdw-1" target="cpP7aHBiMPf3QizdeRdw-33">
          <mxGeometry relative="1" as="geometry">
            <mxPoint x="644.9999999999998" y="390" as="sourcePoint" />
            <mxPoint x="745" y="390" as="targetPoint" />
          </mxGeometry>
        </mxCell>
        <mxCell id="cpP7aHBiMPf3QizdeRdw-36" value="Green" style="rounded=1;whiteSpace=wrap;html=1;sketch=1;fontSize=12;fontStyle=1;fontFamily=Helvetica;" vertex="1" parent="1">
          <mxGeometry x="370" y="367.5" width="90" height="45" as="geometry" />
        </mxCell>
        <mxCell id="cpP7aHBiMPf3QizdeRdw-38" value="&lt;span&gt;Intrinsic/&lt;/span&gt;&lt;br&gt;&lt;span&gt;Extrinsic&lt;/span&gt;" style="rhombus;whiteSpace=wrap;html=1;rounded=1;sketch=1;fontSize=12;fontStyle=1;fontFamily=Helvetica;" vertex="1" parent="1">
          <mxGeometry x="740" y="610" width="80" height="80" as="geometry" />
        </mxCell>
        <mxCell id="cpP7aHBiMPf3QizdeRdw-48" value="&lt;span&gt;Intrinsic/&lt;/span&gt;&lt;br&gt;&lt;span&gt;Extrinsic&lt;/span&gt;" style="rhombus;whiteSpace=wrap;html=1;rounded=1;sketch=1;fontStyle=1;" vertex="1" parent="1">
          <mxGeometry x="346" y="610" width="80" height="80" as="geometry" />
        </mxCell>
        <mxCell id="cpP7aHBiMPf3QizdeRdw-50" value="Yellow" style="rounded=1;whiteSpace=wrap;html=1;sketch=1;fontSize=12;fontStyle=1;fontFamily=Helvetica;" vertex="1" parent="1">
          <mxGeometry x="345" y="500" width="80" height="40" as="geometry" />
        </mxCell>
        <mxCell id="cpP7aHBiMPf3QizdeRdw-51" value="Orange" style="rounded=1;whiteSpace=wrap;html=1;sketch=1;fontSize=12;fontStyle=1;fontFamily=Helvetica;" vertex="1" parent="1">
          <mxGeometry x="740" y="500" width="80" height="40" as="geometry" />
        </mxCell>
        <mxCell id="cpP7aHBiMPf3QizdeRdw-55" value="Intrinsic/&lt;br&gt;Extrinsic" style="rhombus;whiteSpace=wrap;html=1;rounded=1;sketch=1;fontStyle=1;" vertex="1" parent="1">
          <mxGeometry x="346" y="100" width="80" height="80" as="geometry" />
        </mxCell>
        <mxCell id="cpP7aHBiMPf3QizdeRdw-60" value="" style="edgeStyle=orthogonalEdgeStyle;curved=1;rounded=1;sketch=1;orthogonalLoop=1;jettySize=auto;html=1;fontFamily=Helvetica;fontSize=12;" edge="1" parent="1" source="cpP7aHBiMPf3QizdeRdw-57" target="cpP7aHBiMPf3QizdeRdw-59">
          <mxGeometry relative="1" as="geometry" />
        </mxCell>
        <mxCell id="cpP7aHBiMPf3QizdeRdw-57" value="Black" style="whiteSpace=wrap;html=1;rounded=1;sketch=1;fontStyle=1;fontFamily=Helvetica;" vertex="1" parent="1">
          <mxGeometry x="740" y="240" width="80" height="40" as="geometry" />
        </mxCell>
        <mxCell id="cpP7aHBiMPf3QizdeRdw-65" value="" style="edgeStyle=orthogonalEdgeStyle;curved=1;rounded=1;sketch=1;orthogonalLoop=1;jettySize=auto;html=1;fontFamily=Helvetica;fontSize=12;" edge="1" parent="1" source="cpP7aHBiMPf3QizdeRdw-59" target="cpP7aHBiMPf3QizdeRdw-64">
          <mxGeometry relative="1" as="geometry" />
        </mxCell>
        <mxCell id="cpP7aHBiMPf3QizdeRdw-70" value="" style="edgeStyle=orthogonalEdgeStyle;curved=1;rounded=1;sketch=1;orthogonalLoop=1;jettySize=auto;html=1;fontFamily=Helvetica;fontSize=12;" edge="1" parent="1" source="cpP7aHBiMPf3QizdeRdw-59" target="cpP7aHBiMPf3QizdeRdw-69">
          <mxGeometry relative="1" as="geometry" />
        </mxCell>
        <mxCell id="cpP7aHBiMPf3QizdeRdw-59" value="&lt;span&gt;Intrinsic/&lt;/span&gt;&lt;br&gt;&lt;span&gt;Extrinsic&lt;/span&gt;" style="rhombus;whiteSpace=wrap;html=1;rounded=1;sketch=1;fontStyle=1;" vertex="1" parent="1">
          <mxGeometry x="740" y="100" width="80" height="80" as="geometry" />
        </mxCell>
        <mxCell id="cpP7aHBiMPf3QizdeRdw-95" value="" style="edgeStyle=orthogonalEdgeStyle;curved=1;rounded=1;sketch=1;orthogonalLoop=1;jettySize=auto;html=1;fontFamily=Helvetica;fontSize=12;entryX=0.504;entryY=1.01;entryDx=0;entryDy=0;entryPerimeter=0;" edge="1" parent="1" source="cpP7aHBiMPf3QizdeRdw-64" target="cpP7aHBiMPf3QizdeRdw-92">
          <mxGeometry relative="1" as="geometry">
            <mxPoint x="779" y="-34" as="targetPoint" />
          </mxGeometry>
        </mxCell>
        <mxCell id="cpP7aHBiMPf3QizdeRdw-64" value="Extrinsic" style="whiteSpace=wrap;html=1;rounded=1;sketch=1;fontStyle=1;" vertex="1" parent="1">
          <mxGeometry x="740" y="20" width="80" height="40" as="geometry" />
        </mxCell>
        <mxCell id="cpP7aHBiMPf3QizdeRdw-123" style="edgeStyle=orthogonalEdgeStyle;curved=1;rounded=1;sketch=1;orthogonalLoop=1;jettySize=auto;html=1;entryX=-0.026;entryY=1.007;entryDx=0;entryDy=0;entryPerimeter=0;fontFamily=Helvetica;fontSize=12;exitX=1;exitY=0.5;exitDx=0;exitDy=0;" edge="1" parent="1" source="cpP7aHBiMPf3QizdeRdw-69" target="cpP7aHBiMPf3QizdeRdw-119">
          <mxGeometry relative="1" as="geometry">
            <mxPoint x="1070.1999999999998" y="139.4000000000001" as="targetPoint" />
            <Array as="points">
              <mxPoint x="1066" y="140" />
            </Array>
          </mxGeometry>
        </mxCell>
        <mxCell id="cpP7aHBiMPf3QizdeRdw-124" style="edgeStyle=orthogonalEdgeStyle;curved=1;rounded=1;sketch=1;orthogonalLoop=1;jettySize=auto;html=1;entryX=-0.003;entryY=0.094;entryDx=0;entryDy=0;entryPerimeter=0;fontFamily=Helvetica;fontSize=12;" edge="1" parent="1" source="cpP7aHBiMPf3QizdeRdw-69" target="cpP7aHBiMPf3QizdeRdw-116">
          <mxGeometry relative="1" as="geometry" />
        </mxCell>
        <mxCell id="cpP7aHBiMPf3QizdeRdw-69" value="Single &lt;br&gt;Tooth" style="rhombus;whiteSpace=wrap;html=1;rounded=1;sketch=1;fontStyle=1;" vertex="1" parent="1">
          <mxGeometry x="880" y="100" width="80" height="80" as="geometry" />
        </mxCell>
        <mxCell id="cpP7aHBiMPf3QizdeRdw-71" value="" style="edgeStyle=orthogonalEdgeStyle;curved=1;rounded=1;sketch=1;orthogonalLoop=1;jettySize=auto;html=1;fontFamily=Helvetica;fontSize=12;exitX=0.5;exitY=0;exitDx=0;exitDy=0;" edge="1" parent="1" source="cpP7aHBiMPf3QizdeRdw-73" target="cpP7aHBiMPf3QizdeRdw-74">
          <mxGeometry relative="1" as="geometry" />
        </mxCell>
        <mxCell id="cpP7aHBiMPf3QizdeRdw-72" value="" style="edgeStyle=orthogonalEdgeStyle;curved=1;rounded=1;sketch=1;orthogonalLoop=1;jettySize=auto;html=1;fontFamily=Helvetica;fontSize=12;" edge="1" parent="1" source="cpP7aHBiMPf3QizdeRdw-73" target="cpP7aHBiMPf3QizdeRdw-75">
          <mxGeometry relative="1" as="geometry" />
        </mxCell>
        <mxCell id="cpP7aHBiMPf3QizdeRdw-73" value="&lt;span&gt;Intrinsic/&lt;/span&gt;&lt;br&gt;&lt;span&gt;Extrinsic&lt;/span&gt;" style="rhombus;whiteSpace=wrap;html=1;rounded=1;sketch=1;fontStyle=1;" vertex="1" parent="1">
          <mxGeometry x="820" y="350" width="80" height="80" as="geometry" />
        </mxCell>
        <mxCell id="cpP7aHBiMPf3QizdeRdw-74" value="Extrinsic" style="whiteSpace=wrap;html=1;rounded=1;sketch=1;fontStyle=1;" vertex="1" parent="1">
          <mxGeometry x="930" y="270" width="80" height="40" as="geometry" />
        </mxCell>
        <mxCell id="cpP7aHBiMPf3QizdeRdw-75" value="Single &lt;br&gt;Tooth" style="rhombus;whiteSpace=wrap;html=1;rounded=1;sketch=1;fontStyle=1;" vertex="1" parent="1">
          <mxGeometry x="960" y="350" width="80" height="80" as="geometry" />
        </mxCell>
        <mxCell id="cpP7aHBiMPf3QizdeRdw-88" value="" style="html=1;shadow=0;dashed=0;shape=mxgraph.bootstrap.rrect;rSize=5;html=1;whiteSpace=wrap;rounded=1;sketch=1;fontFamily=Helvetica;fontSize=12;fontStyle=0" vertex="1" parent="1">
          <mxGeometry x="704" y="-150" width="150" height="150" as="geometry" />
        </mxCell>
        <mxCell id="cpP7aHBiMPf3QizdeRdw-89" value="Tobacco" style="strokeColor=inherit;fillColor=inherit;gradientColor=inherit;fontColor=inherit;html=1;shadow=0;dashed=0;shape=mxgraph.bootstrap.topButton;rSize=5;perimeter=none;whiteSpace=wrap;resizeWidth=1;align=left;spacing=10;rounded=1;sketch=1;fontFamily=Helvetica;fontSize=12;fontStyle=1" vertex="1" parent="cpP7aHBiMPf3QizdeRdw-88">
          <mxGeometry width="150" height="30" relative="1" as="geometry" />
        </mxCell>
        <mxCell id="cpP7aHBiMPf3QizdeRdw-90" value="Wine" style="strokeColor=inherit;fillColor=inherit;gradientColor=inherit;fontColor=inherit;html=1;shadow=0;dashed=0;perimeter=none;whiteSpace=wrap;resizeWidth=1;align=left;spacing=10;rounded=1;sketch=1;fontFamily=Helvetica;fontSize=12;fontStyle=1" vertex="1" parent="cpP7aHBiMPf3QizdeRdw-88">
          <mxGeometry width="150" height="30" relative="1" as="geometry">
            <mxPoint y="30" as="offset" />
          </mxGeometry>
        </mxCell>
        <mxCell id="cpP7aHBiMPf3QizdeRdw-91" value="Dental Plaque" style="strokeColor=inherit;fillColor=inherit;gradientColor=inherit;fontColor=inherit;html=1;shadow=0;dashed=0;perimeter=none;whiteSpace=wrap;resizeWidth=1;align=left;spacing=10;rounded=1;sketch=1;fontFamily=Helvetica;fontSize=12;fontStyle=1" vertex="1" parent="cpP7aHBiMPf3QizdeRdw-88">
          <mxGeometry width="150" height="30" relative="1" as="geometry">
            <mxPoint y="60" as="offset" />
          </mxGeometry>
        </mxCell>
        <mxCell id="cpP7aHBiMPf3QizdeRdw-92" value="Metals" style="strokeColor=inherit;fillColor=inherit;gradientColor=inherit;fontColor=inherit;html=1;shadow=0;dashed=0;perimeter=none;whiteSpace=wrap;resizeWidth=1;align=left;spacing=10;rounded=1;sketch=1;fontFamily=Helvetica;fontSize=12;fontStyle=1" vertex="1" parent="cpP7aHBiMPf3QizdeRdw-88">
          <mxGeometry width="150" height="30" relative="1" as="geometry">
            <mxPoint y="90" as="offset" />
          </mxGeometry>
        </mxCell>
        <mxCell id="cpP7aHBiMPf3QizdeRdw-105" value="" style="html=1;shadow=0;dashed=0;shape=mxgraph.bootstrap.rrect;rSize=5;html=1;whiteSpace=wrap;rounded=1;sketch=1;fontFamily=Helvetica;fontSize=12;fontStyle=1" vertex="1" parent="1">
          <mxGeometry x="704" y="-300" width="150" height="150" as="geometry" />
        </mxCell>
        <mxCell id="cpP7aHBiMPf3QizdeRdw-108" value="Betel Nut&lt;span style=&quot;white-space: pre&quot;&gt;	&lt;/span&gt;" style="strokeColor=inherit;fillColor=inherit;gradientColor=inherit;fontColor=inherit;html=1;shadow=0;dashed=0;perimeter=none;whiteSpace=wrap;resizeWidth=1;align=left;spacing=10;rounded=1;sketch=1;fontFamily=Helvetica;fontSize=12;fontStyle=1" vertex="1" parent="cpP7aHBiMPf3QizdeRdw-105">
          <mxGeometry width="150" height="30" relative="1" as="geometry">
            <mxPoint y="60" as="offset" />
          </mxGeometry>
        </mxCell>
        <mxCell id="cpP7aHBiMPf3QizdeRdw-109" value="Chromogenic bacteria" style="strokeColor=inherit;fillColor=inherit;gradientColor=inherit;fontColor=inherit;html=1;shadow=0;dashed=0;perimeter=none;whiteSpace=wrap;resizeWidth=1;align=left;spacing=10;rounded=1;sketch=1;fontFamily=Helvetica;fontSize=12;fontStyle=1" vertex="1" parent="cpP7aHBiMPf3QizdeRdw-105">
          <mxGeometry width="150" height="30" relative="1" as="geometry">
            <mxPoint y="90" as="offset" />
          </mxGeometry>
        </mxCell>
        <mxCell id="cpP7aHBiMPf3QizdeRdw-110" value="Coffee, Tea" style="strokeColor=inherit;fillColor=inherit;gradientColor=inherit;fontColor=inherit;html=1;shadow=0;dashed=0;shape=mxgraph.bootstrap.bottomButton;rSize=5;perimeter=none;whiteSpace=wrap;resizeWidth=1;resizeHeight=0;align=left;spacing=10;rounded=1;sketch=1;fontFamily=Helvetica;fontSize=12;fontStyle=1" vertex="1" parent="cpP7aHBiMPf3QizdeRdw-105">
          <mxGeometry y="1" width="150" height="30" relative="1" as="geometry">
            <mxPoint y="-30" as="offset" />
          </mxGeometry>
        </mxCell>
        <mxCell id="cpP7aHBiMPf3QizdeRdw-113" value="" style="html=1;shadow=0;dashed=0;shape=mxgraph.bootstrap.rrect;rSize=5;html=1;whiteSpace=wrap;rounded=1;sketch=1;fontFamily=Helvetica;fontSize=12;fontStyle=0" vertex="1" parent="1">
          <mxGeometry x="960" y="-120" width="220" height="150" as="geometry" />
        </mxCell>
        <mxCell id="cpP7aHBiMPf3QizdeRdw-114" value="Amalgam Restorations" style="strokeColor=inherit;fillColor=inherit;gradientColor=inherit;fontColor=inherit;html=1;shadow=0;dashed=0;shape=mxgraph.bootstrap.topButton;rSize=5;perimeter=none;whiteSpace=wrap;resizeWidth=1;align=left;spacing=10;rounded=1;sketch=1;fontFamily=Helvetica;fontSize=12;fontStyle=1" vertex="1" parent="cpP7aHBiMPf3QizdeRdw-113">
          <mxGeometry width="220.00000000000003" height="30" relative="1" as="geometry" />
        </mxCell>
        <mxCell id="cpP7aHBiMPf3QizdeRdw-115" value="GI Restorations" style="strokeColor=inherit;fillColor=inherit;gradientColor=inherit;fontColor=inherit;html=1;shadow=0;dashed=0;perimeter=none;whiteSpace=wrap;resizeWidth=1;align=left;spacing=10;rounded=1;sketch=1;fontFamily=Helvetica;fontSize=12;fontStyle=1" vertex="1" parent="cpP7aHBiMPf3QizdeRdw-113">
          <mxGeometry width="220.00000000000003" height="30" relative="1" as="geometry">
            <mxPoint y="30" as="offset" />
          </mxGeometry>
        </mxCell>
        <mxCell id="cpP7aHBiMPf3QizdeRdw-116" value="Pulpal trauma with haemorrhage" style="strokeColor=inherit;fillColor=inherit;gradientColor=inherit;fontColor=inherit;html=1;shadow=0;dashed=0;perimeter=none;whiteSpace=wrap;resizeWidth=1;align=left;spacing=10;rounded=1;sketch=1;fontFamily=Helvetica;fontSize=12;fontStyle=1" vertex="1" parent="cpP7aHBiMPf3QizdeRdw-113">
          <mxGeometry width="220.00000000000003" height="30" relative="1" as="geometry">
            <mxPoint y="60" as="offset" />
          </mxGeometry>
        </mxCell>
        <mxCell id="cpP7aHBiMPf3QizdeRdw-117" value="Minocycline (Revascularization)" style="strokeColor=inherit;fillColor=inherit;gradientColor=inherit;fontColor=inherit;html=1;shadow=0;dashed=0;perimeter=none;whiteSpace=wrap;resizeWidth=1;align=left;spacing=10;rounded=1;sketch=1;fontFamily=Helvetica;fontSize=12;fontStyle=1" vertex="1" parent="cpP7aHBiMPf3QizdeRdw-113">
          <mxGeometry width="220.00000000000003" height="30" relative="1" as="geometry">
            <mxPoint y="90" as="offset" />
          </mxGeometry>
        </mxCell>
        <mxCell id="cpP7aHBiMPf3QizdeRdw-127" value="Metals (silver, gold, alloys)" style="strokeColor=inherit;fillColor=inherit;gradientColor=inherit;fontColor=inherit;html=1;shadow=0;dashed=0;perimeter=none;whiteSpace=wrap;resizeWidth=1;align=left;spacing=10;rounded=1;sketch=1;fontFamily=Helvetica;fontSize=12;fontStyle=1" vertex="1" parent="cpP7aHBiMPf3QizdeRdw-113">
          <mxGeometry width="220.00000000000003" height="30" relative="1" as="geometry">
            <mxPoint y="120" as="offset" />
          </mxGeometry>
        </mxCell>
        <mxCell id="cpP7aHBiMPf3QizdeRdw-118" value="" style="html=1;shadow=0;dashed=0;shape=mxgraph.bootstrap.rrect;rSize=5;html=1;whiteSpace=wrap;rounded=1;sketch=1;fontFamily=Helvetica;fontSize=12;fontStyle=0" vertex="1" parent="1">
          <mxGeometry x="1069" y="109" width="150" height="60" as="geometry" />
        </mxCell>
        <mxCell id="cpP7aHBiMPf3QizdeRdw-119" value="Minocycline (oral)" style="strokeColor=inherit;fillColor=inherit;gradientColor=inherit;fontColor=inherit;html=1;shadow=0;dashed=0;shape=mxgraph.bootstrap.topButton;rSize=5;perimeter=none;whiteSpace=wrap;resizeWidth=1;align=left;spacing=10;rounded=1;sketch=1;fontFamily=Helvetica;fontSize=12;fontStyle=1" vertex="1" parent="cpP7aHBiMPf3QizdeRdw-118">
          <mxGeometry width="150" height="30" relative="1" as="geometry" />
        </mxCell>
        <mxCell id="cpP7aHBiMPf3QizdeRdw-120" value="Tetracycline (oral)" style="strokeColor=inherit;fillColor=inherit;gradientColor=inherit;fontColor=inherit;html=1;shadow=0;dashed=0;perimeter=none;whiteSpace=wrap;resizeWidth=1;align=left;spacing=10;rounded=1;sketch=1;fontFamily=Helvetica;fontSize=12;fontStyle=1" vertex="1" parent="cpP7aHBiMPf3QizdeRdw-118">
          <mxGeometry width="150" height="30" relative="1" as="geometry">
            <mxPoint y="30" as="offset" />
          </mxGeometry>
        </mxCell>
        <mxCell id="cpP7aHBiMPf3QizdeRdw-125" value="TRUE" style="text;html=1;strokeColor=none;fillColor=none;align=center;verticalAlign=middle;whiteSpace=wrap;rounded=0;sketch=1;fontFamily=Helvetica;fontSize=12;fontStyle=1;fontColor=#6666FF;labelBackgroundColor=none;labelBorderColor=none;" vertex="1" parent="1">
          <mxGeometry x="870" y="20" width="60" height="30" as="geometry" />
        </mxCell>
        <mxCell id="cpP7aHBiMPf3QizdeRdw-126" value="FALSE" style="text;html=1;strokeColor=none;fillColor=none;align=center;verticalAlign=middle;whiteSpace=wrap;rounded=0;sketch=1;fontFamily=Helvetica;fontSize=12;fontStyle=1;fontColor=#FF3333;labelBackgroundColor=none;labelBorderColor=none;" vertex="1" parent="1">
          <mxGeometry x="980" y="114" width="60" height="30" as="geometry" />
        </mxCell>
      </root>
    </mxGraphModel>
  </diagram>
</mxfile>
